<mxfile host="app.diagrams.net" modified="2021-01-18T20:44:40.532Z" agent="5.0 (Windows NT 10.0; Win64; x64) AppleWebKit/537.36 (KHTML, like Gecko) Chrome/87.0.4280.141 Safari/537.36" etag="x5ivGucHv3A6pFLznQWg" version="14.2.4" type="github">
  <diagram name="Page-1" id="aaaa8250-4180-3840-79b5-4cada1eebb92">
    <mxGraphModel dx="4671" dy="2474" grid="1" gridSize="10" guides="1" tooltips="1" connect="1" arrows="1" fold="1" page="1" pageScale="1" pageWidth="850" pageHeight="1100" background="#ffffff" math="0" shadow="0">
      <root>
        <mxCell id="0" />
        <mxCell id="1" parent="0" />
        <mxCell id="sjurrg7AjvPgczkjJ1IB-3" value="" style="verticalLabelPosition=bottom;html=1;verticalAlign=top;strokeWidth=1;align=center;outlineConnect=0;dashed=0;outlineConnect=0;shape=mxgraph.aws3d.file;aspect=fixed;strokeColor=#292929;" vertex="1" parent="1">
          <mxGeometry x="157.4" y="1640.5" width="106.37" height="243.82" as="geometry" />
        </mxCell>
        <mxCell id="sjurrg7AjvPgczkjJ1IB-6" value="&lt;font style=&quot;font-size: 48px&quot;&gt;Ideia do projeto&lt;/font&gt;" style="text;html=1;strokeColor=none;fillColor=none;align=center;verticalAlign=middle;whiteSpace=wrap;rounded=0;" vertex="1" parent="1">
          <mxGeometry x="49.99999999999999" y="1900.5" width="321.18" height="190" as="geometry" />
        </mxCell>
        <mxCell id="sjurrg7AjvPgczkjJ1IB-23" value="" style="verticalLabelPosition=bottom;html=1;verticalAlign=top;strokeWidth=1;align=center;outlineConnect=0;dashed=0;outlineConnect=0;shape=mxgraph.aws3d.cloudfront;fillColor=#ECECEC;strokeColor=#5E5E5E;aspect=fixed;" vertex="1" parent="1">
          <mxGeometry x="799.98" y="1320" width="171.47" height="280.5" as="geometry" />
        </mxCell>
        <mxCell id="sjurrg7AjvPgczkjJ1IB-26" value="" style="verticalLabelPosition=bottom;html=1;verticalAlign=top;strokeWidth=1;align=center;outlineConnect=0;dashed=0;outlineConnect=0;shape=mxgraph.aws3d.elasticLoadBalancing;fillColor=#ECECEC;strokeColor=#5E5E5E;aspect=fixed;" vertex="1" parent="1">
          <mxGeometry x="1910.18" y="790" width="197.82" height="189.59" as="geometry" />
        </mxCell>
        <mxCell id="sjurrg7AjvPgczkjJ1IB-27" value="" style="verticalLabelPosition=bottom;html=1;verticalAlign=top;strokeWidth=1;align=center;outlineConnect=0;dashed=0;outlineConnect=0;shape=mxgraph.aws3d.worker;fillColor=#ECECEC;strokeColor=#5E5E5E;aspect=fixed;" vertex="1" parent="1">
          <mxGeometry x="1987.15" y="1280" width="266.4" height="180" as="geometry" />
        </mxCell>
        <mxCell id="sjurrg7AjvPgczkjJ1IB-28" value="" style="verticalLabelPosition=bottom;html=1;verticalAlign=top;strokeWidth=1;align=center;outlineConnect=0;dashed=0;outlineConnect=0;shape=mxgraph.aws3d.dataCenter;strokeColor=#5E5E5E;aspect=fixed;" vertex="1" parent="1">
          <mxGeometry x="1276.6399999999999" y="102" width="207.89" height="240" as="geometry" />
        </mxCell>
        <mxCell id="sjurrg7AjvPgczkjJ1IB-29" value="" style="verticalLabelPosition=bottom;html=1;verticalAlign=top;strokeWidth=1;align=center;outlineConnect=0;dashed=0;outlineConnect=0;shape=mxgraph.aws3d.application2;fillColor=#86E83A;strokeColor=#B0F373;aspect=fixed;" vertex="1" parent="1">
          <mxGeometry x="1327.9499999999998" y="112" width="105.28" height="90" as="geometry" />
        </mxCell>
        <mxCell id="sjurrg7AjvPgczkjJ1IB-30" value="&lt;font style=&quot;font-size: 48px&quot;&gt;levantamento de requisitos&lt;br&gt;&lt;br&gt;&lt;/font&gt;" style="text;html=1;strokeColor=none;fillColor=none;align=center;verticalAlign=middle;whiteSpace=wrap;rounded=0;" vertex="1" parent="1">
          <mxGeometry x="740" y="1630" width="321.18" height="190" as="geometry" />
        </mxCell>
        <mxCell id="sjurrg7AjvPgczkjJ1IB-31" value="&lt;font style=&quot;font-size: 48px&quot;&gt;Implementação&lt;br&gt;&lt;/font&gt;" style="text;html=1;strokeColor=none;fillColor=none;align=center;verticalAlign=middle;whiteSpace=wrap;rounded=0;" vertex="1" parent="1">
          <mxGeometry x="1970" y="1440" width="321.18" height="190" as="geometry" />
        </mxCell>
        <mxCell id="sjurrg7AjvPgczkjJ1IB-32" value="&lt;font style=&quot;font-size: 48px&quot;&gt;testes de qualidade&lt;br&gt;&lt;br&gt;&lt;/font&gt;" style="text;html=1;strokeColor=none;fillColor=none;align=center;verticalAlign=middle;whiteSpace=wrap;rounded=0;" vertex="1" parent="1">
          <mxGeometry x="1220" y="360" width="321.18" height="190" as="geometry" />
        </mxCell>
        <mxCell id="sjurrg7AjvPgczkjJ1IB-33" value="&lt;font style=&quot;font-size: 48px&quot;&gt;Deploy da release&lt;br&gt;&lt;br&gt;&lt;/font&gt;" style="text;html=1;strokeColor=none;fillColor=none;align=center;verticalAlign=middle;whiteSpace=wrap;rounded=0;" vertex="1" parent="1">
          <mxGeometry x="1850" y="1009.79" width="321.18" height="190" as="geometry" />
        </mxCell>
        <mxCell id="sjurrg7AjvPgczkjJ1IB-36" value="" style="verticalLabelPosition=bottom;html=1;verticalAlign=top;strokeWidth=1;align=center;outlineConnect=0;dashed=0;outlineConnect=0;shape=mxgraph.aws3d.elasticMapReduce;fillColor=#ECECEC;strokeColor=#5E5E5E;aspect=fixed;" vertex="1" parent="1">
          <mxGeometry x="1763.59" y="310" width="188.67" height="204" as="geometry" />
        </mxCell>
        <mxCell id="sjurrg7AjvPgczkjJ1IB-37" value="&lt;font style=&quot;font-size: 48px&quot;&gt;manutenção&lt;br&gt;&lt;/font&gt;" style="text;html=1;strokeColor=none;fillColor=none;align=center;verticalAlign=middle;whiteSpace=wrap;rounded=0;" vertex="1" parent="1">
          <mxGeometry x="1697.34" y="490" width="321.18" height="190" as="geometry" />
        </mxCell>
        <mxCell id="sjurrg7AjvPgczkjJ1IB-38" value="" style="verticalLabelPosition=bottom;html=1;verticalAlign=top;strokeWidth=1;align=center;outlineConnect=0;dashed=0;outlineConnect=0;shape=mxgraph.aws3d.secureConnection;fillColor=#000000;strokeColor=#ffffff;aspect=fixed;" vertex="1" parent="1">
          <mxGeometry x="430" y="1610" width="201.18" height="120" as="geometry" />
        </mxCell>
        <mxCell id="sjurrg7AjvPgczkjJ1IB-39" value="&lt;font style=&quot;font-size: 48px&quot;&gt;Compreensão do sistema&lt;br&gt;&lt;br&gt;&lt;/font&gt;" style="text;html=1;strokeColor=none;fillColor=none;align=center;verticalAlign=middle;whiteSpace=wrap;rounded=0;" vertex="1" parent="1">
          <mxGeometry x="380" y="1770" width="321.18" height="190" as="geometry" />
        </mxCell>
        <mxCell id="sjurrg7AjvPgczkjJ1IB-40" value="" style="verticalLabelPosition=bottom;html=1;verticalAlign=top;strokeWidth=1;align=center;outlineConnect=0;dashed=0;outlineConnect=0;shape=mxgraph.aws3d.secureConnection;fillColor=#000000;strokeColor=#ffffff;aspect=fixed;" vertex="1" parent="1">
          <mxGeometry x="1139.9999999999998" y="1330" width="201.18" height="120" as="geometry" />
        </mxCell>
        <mxCell id="sjurrg7AjvPgczkjJ1IB-41" value="&lt;font style=&quot;font-size: 48px&quot;&gt;modelagem de ameaças&lt;br&gt;&lt;/font&gt;" style="text;html=1;strokeColor=none;fillColor=none;align=center;verticalAlign=middle;whiteSpace=wrap;rounded=0;" vertex="1" parent="1">
          <mxGeometry x="1089.9999999999998" y="1490" width="321.18" height="190" as="geometry" />
        </mxCell>
      </root>
    </mxGraphModel>
  </diagram>
</mxfile>
